<?xml version="1.0" standalone="no"?>
<!DOCTYPE svg PUBLIC "-//W3C//DTD SVG 20010904//EN"
 "http://www.w3.org/TR/2001/REC-SVG-20010904/DTD/svg10.dtd">
<svg version="1.0" xmlns="http://www.w3.org/2000/svg"
 width="1024.000000pt" height="1024.000000pt" viewBox="0 0 1024.000000 1024.000000"
 preserveAspectRatio="xMidYMid meet">

<g transform="translate(0.000000,1024.000000) scale(0.100000,-0.100000)"
fill="#000000" stroke="none">
<path d="M5165 9725 c-37 -15 -353 -212 -625 -390 -695 -452 -676 -439 -683
-475 -8 -40 -9 -827 -1 -856 3 -12 16 -27 29 -34 29 -16 80 7 245 107 202 122
239 147 338 219 53 38 127 88 163 110 36 21 99 63 140 92 41 29 160 110 266
179 106 70 194 132 197 139 8 20 10 880 2 892 -15 24 -41 30 -71 17z m15 -475
l0 -409 -22 -21 c-12 -11 -45 -36 -73 -54 -76 -50 -214 -139 -267 -172 -62
-39 -197 -129 -272 -182 -209 -147 -528 -348 -590 -372 -18 -6 -28 -6 -33 3
-11 16 -3 798 8 818 9 17 123 97 203 144 27 15 160 101 295 190 422 278 716
463 739 464 9 1 12 -87 12 -409z"/>
<path d="M4968 9413 c-124 -77 -383 -248 -633 -418 -88 -59 -190 -128 -227
-153 -62 -40 -68 -48 -68 -78 0 -19 3 -34 6 -34 3 0 23 13 43 29 64 50 846
574 934 625 47 28 62 58 33 69 -8 3 -47 -15 -88 -40z"/>
<path d="M5019 9285 c-14 -8 -115 -76 -225 -152 -110 -76 -300 -205 -423 -288
-315 -212 -365 -255 -333 -287 6 -6 42 14 103 58 52 37 204 141 339 230 135
90 299 203 364 251 66 48 138 99 160 112 58 34 85 61 79 77 -7 18 -31 17 -64
-1z"/>
<path d="M4975 9077 c-57 -31 -225 -145 -325 -220 -25 -19 -89 -61 -142 -94
-53 -34 -125 -83 -159 -110 -35 -27 -117 -84 -181 -127 -65 -43 -123 -85 -129
-92 -6 -8 -8 -25 -5 -39 l7 -26 82 57 c45 32 184 126 308 210 124 84 299 205
389 269 90 64 185 127 212 141 34 17 48 30 46 42 -5 28 -39 24 -103 -11z"/>
<path d="M4915 8851 c-71 -48 -211 -141 -310 -206 -99 -65 -236 -159 -305
-209 -69 -50 -158 -111 -198 -136 -61 -38 -72 -49 -72 -72 0 -16 3 -28 8 -28
14 0 138 77 250 156 142 100 236 164 387 265 341 227 390 263 390 288 0 13 -4
26 -10 27 -5 2 -68 -36 -140 -85z"/>
<path d="M8340 9545 c-6 -8 -51 -35 -98 -61 -48 -26 -120 -69 -160 -97 -60
-41 -75 -48 -83 -36 -7 11 -9 11 -9 -4 0 -10 -24 -33 -59 -55 -73 -48 -135
-95 -183 -140 -28 -27 -40 -33 -50 -24 -7 6 -34 16 -59 22 -58 15 -105 -3
-144 -53 -44 -58 -72 -185 -45 -202 20 -13 9 -63 -41 -175 -28 -63 -74 -171
-103 -240 -50 -120 -53 -125 -81 -125 -27 0 -30 3 -29 33 0 17 1 107 2 200 l2
167 100 65 c55 35 100 65 100 67 0 8 -70 -26 -127 -62 -66 -43 -68 -43 -74
-22 -5 20 -6 19 -11 -8 -5 -24 -22 -40 -77 -75 -39 -25 -115 -73 -168 -107
-54 -35 -105 -63 -113 -63 -8 0 -21 -9 -28 -20 -7 -12 -8 -20 -2 -20 5 0 10
-12 10 -26 0 -24 -3 -26 -27 -20 -16 4 -54 10 -86 13 -47 4 -61 2 -77 -12 -33
-30 -24 -42 33 -49 28 -4 75 -13 102 -20 l50 -12 3 -184 2 -183 -32 -29 -33
-30 34 23 34 23 -5 -140 c-3 -76 -2 -125 2 -109 4 17 8 73 9 125 1 52 4 104 7
116 3 13 60 54 155 113 82 52 149 96 149 98 0 6 -127 -66 -217 -124 l-83 -53
-1 67 c-1 107 2 268 6 272 8 8 270 -58 349 -89 l30 -11 -31 -19 c-37 -22 -58
-48 -24 -31 l21 12 2 -228 c1 -192 2 -212 8 -123 4 58 8 164 9 236 l1 132 27
7 c15 3 52 21 83 40 30 18 86 49 123 70 38 20 84 50 102 67 l35 30 2 -184 3
-183 8 170 c4 94 12 190 19 215 6 25 13 113 16 197 4 145 5 153 26 159 81 24
146 166 113 246 l-15 35 72 60 c39 33 95 76 124 96 l52 37 0 -244 0 -244 -47
-28 c-27 -15 -73 -45 -103 -68 -31 -23 -67 -49 -80 -59 l-25 -18 25 12 c14 6
48 28 75 48 28 20 62 44 78 54 15 9 39 25 53 34 26 17 26 16 24 -13 -5 -71 4
-82 10 -13 4 42 11 82 15 89 10 16 175 136 258 187 l67 42 1 -87 c0 -48 5 -96
10 -107 6 -13 8 14 6 83 -3 69 0 110 9 127 8 16 9 25 2 27 -7 3 -13 75 -16
196 -4 175 -3 194 13 212 15 17 16 20 3 20 -9 0 -21 -7 -28 -15z m-5 -151 c3
-65 8 -156 11 -200 l5 -82 -38 -22 c-85 -51 -152 -97 -220 -152 -39 -32 -74
-58 -77 -58 -3 0 -6 99 -6 220 l0 220 81 52 c109 69 233 144 236 143 2 -1 5
-55 8 -121z m-678 -314 c41 -24 51 -61 29 -106 -17 -37 -68 -74 -101 -74 -11
0 -35 9 -52 20 -26 15 -33 27 -33 50 0 39 22 82 56 109 33 26 60 26 101 1z
m-65 -392 c-1 -73 -5 -147 -7 -164 -7 -42 -62 -91 -172 -153 -51 -29 -95 -56
-98 -62 -4 -5 -10 -9 -15 -9 -5 0 8 35 29 78 225 465 213 442 240 442 l26 0
-3 -132z m-410 -130 c-2 -144 -6 -188 -16 -188 -7 0 -66 14 -132 31 -65 17
-139 36 -164 42 -42 11 -45 14 -48 50 -3 31 1 39 20 46 13 5 95 54 183 110 88
55 160 99 160 98 0 -1 -1 -86 -3 -189z"/>
<path d="M6285 8927 c-152 -86 -148 -298 8 -379 52 -27 137 -29 185 -4 75 39
127 165 103 247 -21 70 -57 115 -111 138 -64 28 -134 27 -185 -2z m184 -77
c33 -33 48 -95 36 -149 -3 -17 -24 -46 -47 -67 -38 -34 -44 -36 -90 -32 -102
10 -158 117 -110 207 24 44 74 71 134 71 38 0 52 -5 77 -30z"/>
<path d="M8125 8889 c-33 -17 -64 -35 -68 -39 -12 -10 -9 -1003 3 -1037 11
-30 97 -93 127 -93 20 0 153 87 158 104 2 6 6 244 8 529 l4 517 -27 0 c-14 0
-49 11 -76 25 -27 14 -53 25 -59 25 -5 0 -37 -14 -70 -31z m142 -547 l2 -483
-31 -19 c-43 -26 -87 -35 -101 -21 -15 15 -22 943 -8 968 9 18 81 42 116 39
20 -1 20 -9 22 -484z"/>
<path d="M8237 8091 c-2 -10 -1 -25 4 -32 6 -10 9 -4 9 19 0 36 -5 42 -13 13z"/>
<path d="M8200 8072 c6 -13 14 -21 18 -18 3 4 -2 14 -12 24 -18 16 -18 16 -6
-6z"/>
<path d="M2075 8796 c-88 -21 -140 -41 -208 -83 -186 -113 -304 -273 -351
-477 -21 -90 -21 -301 -1 -381 34 -131 116 -268 226 -377 54 -53 90 -78 171
-117 139 -68 207 -84 348 -84 135 -1 196 12 305 63 165 77 284 191 361 347
181 367 51 820 -294 1022 -137 80 -188 94 -352 97 -98 2 -164 -1 -205 -10z
m145 -176 l0 -119 -72 -22 c-98 -29 -135 -49 -186 -102 -53 -54 -40 -73 17
-27 23 19 82 47 138 66 l98 34 3 -211 2 -211 -71 -76 c-79 -84 -132 -152 -124
-160 2 -3 53 46 112 108 105 110 108 112 123 91 8 -12 38 -52 66 -89 62 -81
125 -179 128 -198 1 -7 6 -17 11 -21 4 -4 5 -2 1 5 -13 23 0 12 23 -18 13 -18
19 -36 14 -43 -11 -18 -13 -38 -2 -31 5 3 7 9 4 14 -3 5 -1 11 4 14 9 6 78
-78 101 -122 17 -34 7 -49 -56 -79 -46 -22 -57 -24 -65 -12 -7 11 -9 11 -9 -3
0 -19 -58 -39 -127 -44 -35 -2 -44 2 -57 21 -9 14 -16 31 -16 40 0 8 -4 15
-10 15 -5 0 -10 -6 -10 -14 0 -15 -58 -66 -74 -66 -6 0 -51 9 -99 20 -118 26
-214 78 -298 161 -146 144 -218 309 -219 499 0 156 28 263 101 387 100 168
330 308 512 312 l37 1 0 -120z m178 104 c42 -9 110 -31 150 -49 83 -39 83 -30
11 -136 -60 -90 -61 -90 -117 -74 -26 7 -73 19 -104 25 l-58 11 0 120 c0 138
-10 129 118 103z m439 -332 c20 -35 44 -90 54 -122 81 -261 26 -515 -157 -722
-30 -34 -34 -35 -39 -17 -4 11 -28 48 -54 82 -25 34 -55 76 -65 92 -23 36
-173 219 -237 289 l-47 51 -1 198 c-1 108 1 197 4 197 3 0 47 -16 96 -35 50
-19 97 -35 104 -35 16 0 126 118 163 175 l26 41 59 -66 c32 -36 74 -93 94
-128z"/>
<path d="M2162 7578 c-16 -16 -15 -28 3 -28 7 0 19 -8 24 -17 6 -10 11 -12 11
-5 0 6 9 12 20 12 23 0 27 -17 5 -22 -13 -2 -12 -6 5 -20 19 -17 21 -17 41 3
15 15 18 23 9 29 -8 5 -7 9 4 13 9 4 16 13 16 20 0 25 -115 38 -138 15z"/>
<path d="M2530 7570 c0 -5 5 -10 11 -10 5 0 7 5 4 10 -3 6 -8 10 -11 10 -2 0
-4 -4 -4 -10z"/>
<path d="M2569 7503 c-13 -16 -12 -17 4 -4 9 7 17 15 17 17 0 8 -8 3 -21 -13z"/>
<path d="M2573 7455 c0 -7 6 -11 14 -8 7 3 13 6 13 8 0 2 -6 5 -13 8 -8 3 -14
-1 -14 -8z"/>
<path d="M2428 7393 c6 -2 18 -2 25 0 6 3 1 5 -13 5 -14 0 -19 -2 -12 -5z"/>
<path d="M7712 8578 l-62 -43 0 -412 0 -411 -35 -22 c-19 -12 -35 -23 -35 -25
0 -2 16 3 35 11 l35 14 0 -85 0 -85 42 -30 c25 -18 53 -30 72 -30 40 0 185 84
187 108 1 9 1 88 -1 175 l-2 159 43 46 c43 45 44 46 8 19 l-37 -26 -7 47 c-4
25 -5 167 -4 315 4 305 12 277 -85 303 -75 20 -86 18 -154 -28z m160 -510 c2
-255 3 -468 1 -474 -4 -12 -107 -64 -127 -64 -8 0 -16 10 -20 23 -8 30 -8 794
1 880 5 60 8 67 28 67 11 0 30 7 41 15 10 8 31 15 45 15 l27 0 4 -462z"/>
<path d="M7348 8125 c-37 -19 -72 -44 -79 -56 -8 -15 -10 -114 -7 -334 3 -357
-3 -332 98 -380 58 -28 63 -28 117 -17 31 6 60 15 65 20 5 5 9 171 10 371 l3
362 -60 34 c-33 19 -64 34 -70 34 -5 0 -40 -15 -77 -34z m128 -360 c0 -165 -3
-313 -6 -329 -8 -43 -32 -54 -60 -28 -22 20 -24 20 -36 4 -11 -15 -14 -13 -28
20 -13 31 -16 83 -16 286 0 137 3 264 6 281 8 38 62 72 109 68 l30 -2 1 -300z"/>
<path d="M4630 7929 c-257 -27 -539 -125 -775 -269 -126 -77 -295 -212 -380
-303 -223 -238 -380 -534 -422 -796 -22 -134 -20 -892 3 -1025 23 -135 57
-230 126 -351 99 -174 173 -263 469 -571 34 -35 58 -52 75 -51 21 0 108 -53
164 -100 8 -7 24 -20 35 -29 11 -8 14 -12 6 -8 -9 5 -12 3 -7 -5 4 -6 13 -11
19 -10 7 1 19 1 27 0 12 -1 11 -4 -3 -12 -9 -6 -15 -15 -12 -20 4 -5 11 -7 16
-4 5 4 9 2 9 -3 0 -5 6 -9 14 -9 8 0 12 6 9 14 -3 7 26 -4 63 -26 38 -21 98
-49 134 -61 68 -23 71 -24 160 -59 31 -11 61 -21 67 -21 7 0 14 -4 17 -8 7
-12 -38 -9 -46 3 -5 6 -8 5 -8 -2 0 -7 -8 -13 -17 -14 -15 0 -15 -2 2 -8 11
-5 28 -4 39 1 14 8 17 7 14 -4 -3 -7 -14 -14 -26 -16 -23 -3 -30 -26 -12 -37
12 -7 14 -55 2 -55 -4 0 -9 -11 -10 -24 -1 -15 6 -27 21 -35 17 -9 17 -10 2
-5 -67 22 -254 54 -315 54 -157 0 -360 -54 -499 -132 -105 -59 -223 -178 -284
-288 -80 -142 -105 -275 -88 -465 5 -61 13 -162 16 -225 l6 -115 -83 -41
c-137 -69 -562 -405 -593 -469 -16 -35 -16 -39 1 -83 24 -63 97 -140 140 -148
52 -10 99 3 149 42 25 19 49 33 53 30 5 -3 14 0 22 6 12 8 11 9 -4 4 -16 -6
-17 -4 -6 9 7 9 19 14 26 11 8 -3 13 -2 11 2 -3 9 77 82 89 82 5 0 -2 -9 -16
-20 -14 -11 -20 -20 -14 -20 6 0 19 9 29 20 10 11 15 20 10 20 -4 0 -2 7 5 15
7 8 18 15 24 14 23 -3 36 1 36 12 0 8 -5 8 -15 -1 -10 -8 -15 -9 -15 -2 0 15
31 31 48 25 7 -3 10 1 7 9 -9 24 74 85 98 72 9 -5 9 -4 0 6 -9 10 -1 22 39 56
28 24 66 50 86 60 l35 17 21 -29 c45 -62 97 -100 198 -142 166 -70 271 -94
418 -96 69 0 152 2 185 5 33 4 50 5 38 2 -17 -3 -20 -8 -13 -21 5 -9 11 -25
14 -34 6 -21 107 -68 145 -68 19 0 44 16 81 50 29 28 57 50 62 50 4 0 8 7 8
15 0 8 14 17 35 21 20 3 35 12 35 20 0 8 3 13 8 12 16 -4 82 14 82 22 0 6 11
10 24 10 16 0 42 18 78 54 94 95 118 124 105 129 -7 2 12 3 41 2 29 -1 51 -1
49 2 -22 22 -151 92 -160 86 -7 -3 -9 -2 -4 2 4 5 0 16 -8 25 -14 16 -14 22 5
66 18 45 19 46 14 13 -5 -32 -2 -38 30 -62 47 -36 54 -34 14 5 -25 24 -33 40
-33 69 0 20 4 35 10 33 14 -6 36 64 35 110 -1 22 5 43 12 47 9 6 7 17 -9 46
-20 36 -21 45 -13 171 11 164 -4 271 -56 391 -13 29 -21 58 -17 65 3 6 3 8 -2
4 -7 -7 -70 74 -96 124 -10 20 -7 19 19 -6 17 -16 30 -34 29 -40 -1 -6 6 -10
15 -10 10 1 16 -2 13 -6 -2 -4 3 -16 11 -26 9 -10 13 -14 10 -8 -7 16 74 14
106 -2 15 -8 43 -14 62 -14 22 0 45 -9 63 -24 62 -52 105 -69 198 -76 58 -4
97 -2 109 4 14 8 20 8 23 -1 3 -8 18 0 41 22 20 20 47 38 60 41 28 8 28 20 -1
28 -12 3 -31 13 -42 23 -11 10 -33 28 -49 41 -43 33 -7 28 56 -9 40 -24 60
-30 86 -26 29 5 32 4 27 -13 -8 -24 35 -65 120 -116 33 -20 86 -54 117 -76 32
-22 62 -36 68 -33 5 3 15 3 21 -1 6 -4 31 -7 55 -8 39 -1 44 1 44 22 0 19 5
22 40 22 22 0 40 -4 40 -9 0 -12 101 18 122 36 10 9 23 13 31 10 8 -3 20 -1
28 4 11 7 11 9 -3 9 -27 0 -21 18 12 35 37 19 50 19 50 0 0 -11 12 -15 49 -15
28 0 53 5 56 10 3 6 17 10 31 10 13 0 24 5 24 10 0 6 27 10 60 10 33 0 60 4
60 10 0 6 9 10 20 10 11 0 20 5 20 10 0 6 18 10 40 10 29 0 40 4 40 15 0 8 5
15 11 15 6 0 8 -7 5 -16 -6 -15 -4 -15 10 -3 14 12 19 10 36 -11 l20 -24 -24
-19 c-12 -11 -23 -23 -23 -27 0 -5 -4 -12 -9 -17 -5 -5 -6 -3 -2 5 10 17 -5
15 -33 -7 -21 -16 -22 -19 -6 -25 10 -3 15 -12 12 -20 -3 -8 -1 -17 6 -20 9
-3 8 -8 -3 -15 -11 -8 -2 -11 38 -11 40 0 51 3 46 13 -3 6 6 -1 22 -18 21 -22
25 -31 16 -35 -17 -7 -3 -19 40 -38 20 -8 28 -8 32 1 2 7 5 5 5 -5 1 -18 57
-42 74 -31 6 3 7 1 3 -5 -4 -7 -1 -12 8 -12 9 0 16 -4 16 -10 0 -5 7 -6 17 -3
10 4 14 2 9 -5 -3 -6 2 -13 13 -17 11 -3 22 -12 25 -20 3 -8 10 -15 15 -15 5
0 31 -20 57 -45 45 -44 72 -55 43 -18 -13 17 -13 17 6 3 11 -8 22 -16 24 -17
2 -1 -2 -11 -10 -20 -11 -15 -11 -16 1 -5 18 15 38 16 23 1 -13 -13 -6 -39 9
-39 6 0 8 7 4 15 -11 29 12 14 87 -58 54 -52 74 -76 66 -84 -11 -11 52 -82
125 -138 21 -16 44 -35 51 -42 7 -7 25 -15 40 -19 18 -4 30 -17 37 -35 5 -16
14 -29 18 -29 5 0 28 -19 53 -43 24 -23 80 -71 123 -107 97 -80 125 -104 179
-155 24 -22 65 -51 92 -65 26 -14 71 -47 98 -73 59 -58 171 -133 191 -129 7 1
24 -4 36 -12 13 -8 42 -18 66 -22 24 -4 49 -13 56 -20 8 -7 16 -10 20 -7 3 4
6 2 6 -4 0 -20 53 -33 138 -33 90 0 112 8 112 41 0 9 11 24 25 33 14 9 25 26
25 37 0 11 5 30 12 42 6 12 13 33 14 47 2 14 6 44 10 67 5 34 3 44 -10 49 -9
3 -16 14 -16 24 0 10 -6 20 -13 23 -7 3 -24 27 -38 53 -13 27 -29 56 -35 64
-18 24 -26 70 -12 70 6 0 2 10 -10 23 -12 13 -22 28 -22 34 0 6 -13 22 -30 35
-16 13 -43 34 -60 48 l-30 25 11 90 c27 232 -10 299 -301 543 -80 67 -185 159
-235 204 -49 44 -142 124 -205 176 -63 53 -138 116 -165 141 -104 95 -218 196
-228 202 -5 4 -6 12 -2 19 5 9 4 11 -3 6 -13 -8 -52 14 -52 29 -1 5 -29 30
-64 55 -35 25 -62 48 -59 53 2 4 -6 7 -19 8 -29 1 -99 27 -75 28 13 1 17 10
17 46 0 33 -4 45 -15 45 -8 0 -15 5 -15 10 0 6 7 10 15 10 10 0 15 10 15 34 0
34 0 34 40 29 35 -5 40 -3 40 15 0 11 8 22 20 25 11 3 20 12 20 21 0 9 8 16
19 16 17 0 19 10 20 118 1 67 5 118 11 120 6 2 10 39 10 83 0 66 -3 79 -16 79
-15 0 -16 16 -9 159 6 143 6 159 -10 165 -9 3 -20 4 -25 1 -5 -3 -11 13 -15
35 -4 22 -10 40 -14 40 -4 0 -6 14 -3 30 3 19 0 30 -8 30 -7 0 -10 6 -7 14 3
8 1 16 -4 18 -6 2 -11 10 -12 19 -2 9 -10 28 -20 42 -9 14 -22 46 -29 72 -7
25 -18 45 -25 45 -7 0 -13 7 -13 15 0 8 7 15 15 15 8 0 15 5 15 10 0 6 -4 10
-10 10 -5 0 -10 8 -10 19 0 10 -9 30 -20 44 -11 14 -21 42 -21 64 l-2 38 -7
-40 -7 -40 -2 48 c0 26 -5 47 -11 47 -5 0 -10 -6 -11 -12 0 -7 -6 7 -12 32 -9
31 -17 45 -29 44 -13 -1 -17 12 -23 65 -32 311 -116 579 -248 797 -157 260
-361 461 -527 521 -44 16 -43 16 -32 -3 5 -9 38 -38 73 -65 90 -70 335 -330
394 -420 76 -114 139 -246 184 -386 154 -481 128 -1010 -68 -1388 -152 -294
-326 -480 -611 -653 -175 -106 -461 -209 -705 -253 -172 -31 -432 -31 -600 0
-184 34 -207 40 -395 98 -202 62 -244 81 -377 168 -54 36 -104 65 -110 65 -7
0 -13 5 -13 10 0 6 -9 10 -19 10 -11 0 -49 15 -85 34 -67 35 -126 76 -109 76
5 0 14 -5 21 -12 9 -9 15 -9 25 1 10 10 9 12 -3 9 -8 -2 -14 2 -13 9 2 8 -4
10 -14 6 -12 -5 -14 -3 -7 8 4 8 10 19 11 24 1 6 7 28 12 49 5 22 8 43 5 47
-2 4 3 23 11 42 8 19 11 38 7 42 -4 5 -1 5 6 1 7 -4 10 -11 8 -15 -3 -4 1 -8
8 -8 9 0 12 7 8 16 -3 9 14 -8 37 -36 24 -29 47 -53 52 -53 5 0 28 -21 51 -47
188 -207 229 -239 393 -308 298 -125 680 -184 965 -151 342 41 661 161 890
337 77 59 226 206 297 294 150 186 252 428 288 688 33 233 10 601 -50 825 -38
142 -189 427 -273 515 -33 35 -42 34 -43 -5 -1 -21 -3 -26 -6 -13 -10 38 -81
162 -166 290 -67 101 -108 150 -183 220 -226 209 -411 330 -655 427 -281 113
-611 158 -919 127z m315 -69 c349 -32 598 -110 860 -270 421 -256 671 -608
746 -1052 40 -231 14 -533 -62 -737 -38 -102 -121 -249 -201 -355 -308 -411
-739 -653 -1303 -731 -140 -20 -216 -16 -432 20 -173 29 -217 41 -378 101
-377 141 -680 399 -893 761 -115 194 -174 438 -174 713 1 308 73 544 247 805
182 274 556 547 900 658 254 81 463 108 690 87z m1670 -1051 c11 -16 1 -19
-13 -3 -7 8 -8 14 -3 14 5 0 13 -5 16 -11z m63 -94 c64 -121 111 -246 126
-335 9 -52 19 -106 22 -120 3 -19 2 -22 -6 -10 -8 13 -10 13 -10 -2 0 -10 5
-18 10 -18 6 0 10 -4 10 -10 0 -5 -7 -7 -15 -4 -10 4 -15 0 -15 -15 0 -11 -5
-41 -12 -66 -7 -24 -9 -48 -4 -52 11 -11 26 19 20 42 -2 11 0 34 6 50 l10 30
-5 -32 c-6 -41 2 -63 21 -56 16 6 20 -32 4 -42 -5 -3 -10 -16 -9 -28 0 -21 1
-21 9 -2 5 13 9 14 9 5 0 -22 -17 -59 -18 -40 -1 13 -2 13 -11 0 -5 -8 -10
-19 -10 -25 0 -5 4 -4 8 3 5 7 8 -13 8 -45 0 -60 13 -195 20 -202 2 -3 3 55 1
128 -1 73 0 137 4 142 13 22 20 -219 9 -331 -36 -365 -163 -672 -361 -872 -25
-25 -49 -54 -53 -63 -4 -10 -12 -15 -22 -11 -9 3 -12 2 -9 -4 4 -6 -1 -17 -9
-26 -9 -8 -16 -11 -16 -5 0 6 -4 11 -9 11 -5 0 -8 -7 -7 -16 0 -9 -13 -27 -31
-41 -30 -23 -31 -23 -26 -4 3 12 9 19 13 16 5 -3 14 8 22 25 7 16 20 30 29 30
9 0 24 17 34 40 13 29 21 37 30 30 18 -15 26 0 9 18 -9 8 -12 18 -7 21 4 3 14
18 22 33 8 15 22 30 32 33 14 5 30 36 33 67 1 4 7 13 14 20 6 6 12 19 12 27 0
14 1 14 10 1 8 -12 10 -12 11 5 1 11 0 32 -1 47 -1 16 6 30 17 37 14 8 15 12
5 19 -11 8 -11 10 1 15 16 6 47 62 47 84 0 8 9 26 20 40 21 27 27 63 10 63 -5
0 -10 9 -10 20 0 11 5 20 10 20 6 0 10 18 10 40 0 36 -3 40 -24 40 -15 0 -27
7 -30 18 -3 9 -4 5 -2 -10 2 -16 -1 -28 -5 -28 -5 0 -9 -9 -9 -20 0 -11 -5
-20 -11 -20 -6 0 -9 -9 -6 -20 3 -11 2 -20 -3 -20 -4 0 -13 -14 -20 -30 -7
-17 -16 -33 -21 -36 -4 -2 5 27 21 66 33 81 70 206 70 238 0 12 5 22 11 22 6
0 8 7 5 16 -3 9 -3 65 0 124 5 85 10 107 20 103 8 -3 14 -19 13 -37 -1 -30 -1
-30 -9 -6 -7 20 -8 17 -8 -20 0 -25 2 -39 5 -32 2 6 20 12 39 12 33 0 34 1 34
40 0 22 5 40 10 40 6 0 10 -18 10 -40 0 -56 14 -50 30 14 9 37 10 63 3 82 -5
16 -11 56 -12 89 -1 33 -6 62 -12 63 -5 2 -9 11 -9 19 0 9 -6 13 -14 10 -11
-4 -12 2 -3 36 8 30 7 42 -1 45 -8 2 -12 31 -12 80 0 49 -6 88 -15 106 -8 15
-15 34 -15 41 0 7 -6 15 -14 18 -10 4 -12 0 -9 -14 3 -11 0 -19 -7 -19 -9 0
-11 11 -7 35 4 26 2 35 -8 35 -21 0 -25 10 -55 158 -15 75 -31 146 -35 157 -6
19 -6 19 5 1 10 -15 14 -16 22 -5 7 10 8 8 4 -7 -7 -24 20 -30 28 -7 3 8 2 12
-2 9 -4 -2 -8 7 -8 21 -2 23 -1 23 10 6 7 -10 22 -36 34 -58z m29 -437 c-3 -8
-6 -5 -6 6 -1 11 2 17 5 13 3 -3 4 -12 1 -19z m-20 -75 c-3 -10 -5 -4 -5 12 0
17 2 24 5 18 2 -7 2 -21 0 -30z m30 15 c-3 -8 -6 -5 -6 6 -1 11 2 17 5 13 3
-3 4 -12 1 -19z m23 -43 c0 -30 -4 -55 -10 -55 -11 0 -13 33 -4 79 9 46 14 38
14 -24z m100 -12 c0 -24 -3 -33 -9 -25 -7 12 -4 62 5 62 2 0 4 -17 4 -37z
m-169 -25 c-3 -21 -6 -26 -9 -15 -3 17 3 47 11 47 2 0 1 -15 -2 -32z m56 -50
c19 -21 8 -24 -13 -4 -8 8 -13 31 -12 53 l1 38 4 -35 c3 -19 12 -43 20 -52z
m-60 -60 c-3 -8 -6 -5 -6 6 -1 11 2 17 5 13 3 -3 4 -12 1 -19z m140 -180 c-3
-8 -6 -5 -6 6 -1 11 2 17 5 13 3 -3 4 -12 1 -19z m-226 -134 c-12 -119 -30
-206 -41 -199 -5 3 -4 19 1 35 6 16 9 37 6 47 -3 12 -5 8 -6 -9 0 -16 -5 -28
-10 -28 -4 0 -8 10 -7 22 0 11 -5 23 -12 25 -7 3 -10 -1 -6 -11 4 -10 1 -16
-10 -16 -18 0 -39 -33 -28 -45 4 -5 1 -5 -6 -1 -13 8 -11 12 18 56 9 14 36 71
59 128 24 56 45 101 48 99 2 -2 -1 -49 -6 -103z m-3433 -7 c27 -83 169 -329
232 -400 23 -26 43 -55 45 -65 1 -9 8 -16 14 -14 13 2 15 -14 2 -22 -10 -6
-26 23 -22 39 2 5 0 8 -2 5 -3 -3 -6 -9 -7 -15 -1 -5 -7 -17 -13 -25 -10 -13
-10 -13 5 -2 15 12 18 10 23 -15 11 -49 15 -54 27 -48 7 4 5 0 -6 -9 -10 -8
-15 -19 -12 -24 3 -5 1 -22 -4 -38 l-10 -29 5 33 c3 20 1 31 -5 27 -6 -3 -10
-17 -10 -31 0 -13 -4 -24 -10 -24 -5 0 -7 -8 -4 -17 9 -28 -30 21 -98 122
-133 198 -154 264 -183 578 -2 26 -1 47 3 47 4 0 17 -33 30 -73z m3969 -129
c-3 -8 -6 -5 -6 6 -1 11 2 17 5 13 3 -3 4 -12 1 -19z m-696 -101 c-10 -9 -11
-8 -5 6 3 10 9 15 12 12 3 -3 0 -11 -7 -18z m176 -189 c-3 -8 -6 -5 -6 6 -1
11 2 17 5 13 3 -3 4 -12 1 -19z m68 8 c12 -12 11 -14 -9 -18 -19 -4 -22 -1
-18 14 5 22 9 22 27 4z m-3180 -114 c-3 -3 -11 0 -18 7 -9 10 -8 11 6 5 10 -3
15 -9 12 -12z m3018 -17 c-3 -9 -8 -14 -10 -11 -3 3 -2 9 2 15 9 16 15 13 8
-4z m-43 -80 c0 -2 -10 -10 -22 -16 -21 -11 -22 -11 -9 4 13 16 31 23 31 12z
m-87 -100 c-3 -9 -8 -14 -10 -11 -3 3 -2 9 2 15 9 16 15 13 8 -4z m-53 -59 c0
-2 -8 -10 -17 -17 -16 -13 -17 -12 -4 4 13 16 21 21 21 13z m-24 -298 c4 4 2
-1 -5 -10 -7 -10 -17 -15 -22 -12 -5 3 -9 1 -9 -5 0 -12 -109 -81 -175 -111
-28 -12 -79 -36 -115 -53 -106 -48 -290 -108 -375 -122 -36 -5 -34 -4 15 13
30 11 71 23 90 27 44 9 144 43 177 60 22 12 23 14 7 18 -11 2 -6 3 11 2 16 -1
37 1 45 6 8 4 23 10 33 13 10 3 15 11 12 17 -5 7 3 10 21 7 23 -2 29 1 28 15
-1 13 3 16 16 12 11 -3 20 1 24 10 4 11 13 14 25 10 11 -3 22 -1 26 5 3 5 1
10 -6 10 -27 0 4 14 39 17 23 2 45 12 58 28 12 13 25 21 30 17 4 -4 4 1 1 10
-4 13 -2 15 10 11 12 -5 14 -3 8 8 -7 11 -6 12 7 2 8 -7 19 -9 24 -5z m328
-73 c-9 -22 60 -109 135 -171 127 -104 193 -163 207 -182 12 -17 6 -26 -68
-100 -44 -45 -83 -82 -87 -82 -15 0 -242 176 -271 210 -8 10 -25 23 -37 29
-49 25 -19 143 56 217 22 23 41 48 41 56 0 8 5 19 12 26 16 16 19 15 12 -3z
m744 1 c-7 -8 -15 -12 -17 -11 -5 6 10 25 20 25 5 0 4 -6 -3 -14z m-1558 -31
c0 -6 -56 -35 -67 -35 -4 1 8 9 27 20 39 22 40 22 40 15z m-85 -45 c-3 -5 -14
-10 -23 -10 -15 0 -15 2 -2 10 20 13 33 13 25 0z m-49 -17 c-8 -8 -77 -33 -91
-32 -11 0 75 38 89 38 5 1 6 -2 2 -6z m-309 -9 c-3 -3 -12 -4 -19 -1 -8 3 -5
6 6 6 11 1 17 -2 13 -5z m198 -33 c-6 -4 -23 -11 -40 -14 l-30 -6 30 14 c35
16 54 19 40 6z m-100 -35 c-16 -7 -55 -19 -85 -26 -30 -7 -59 -16 -65 -19 -5
-4 -23 -8 -40 -8 -37 -2 -26 3 94 37 106 31 142 37 96 16z m925 -6 c0 -5 -5
-10 -11 -10 -5 0 -7 5 -4 10 3 6 8 10 11 10 2 0 4 -4 4 -10z m-753 -26 c-3 -3
-12 -4 -19 -1 -8 3 -5 6 6 6 11 1 17 -2 13 -5z m-397 -49 c0 -7 8 -16 18 -18
9 -3 -36 -5 -100 -6 -73 -1 -118 3 -118 9 0 6 19 11 43 11 23 1 56 4 72 8 52
12 85 11 85 -4z m110 5 c-8 -5 -31 -9 -50 -8 l-35 1 40 7 c59 11 61 11 45 0z
m1877 -1 c-11 -7 -23 -7 -28 -2 -5 5 3 9 19 11 24 1 25 0 9 -9z m-1680 -5 c-3
-3 -12 -4 -19 -1 -8 3 -5 6 6 6 11 1 17 -2 13 -5z m1438 -4 c3 -6 -1 -7 -9 -4
-18 7 -21 14 -7 14 6 0 13 -4 16 -10z m-1488 -6 c-3 -3 -12 -4 -19 -1 -8 3 -5
6 6 6 11 1 17 -2 13 -5z m-177 -14 c0 -5 -9 -10 -20 -10 -11 0 -20 5 -20 10 0
6 9 10 20 10 11 0 20 -4 20 -10z m43 3 c-7 -2 -19 -2 -25 0 -7 3 -2 5 12 5 14
0 19 -2 13 -5z m75 0 c-10 -2 -26 -2 -35 0 -10 3 -2 5 17 5 19 0 27 -2 18 -5z
m1858 -64 c16 -5 71 -49 124 -97 158 -145 337 -303 481 -423 229 -192 603
-524 630 -560 71 -93 76 -139 22 -191 -78 -74 -291 -186 -361 -189 -51 -2
-136 23 -207 62 l-60 32 29 -31 c16 -17 30 -40 31 -50 1 -21 38 -76 70 -107
12 -12 19 -27 17 -34 -3 -9 0 -11 8 -6 8 5 11 3 8 -5 -2 -8 14 -31 36 -53 l41
-39 -35 14 c-53 22 -207 136 -346 254 -44 38 -121 103 -169 144 -49 41 -117
100 -150 130 -34 30 -175 154 -314 274 -139 121 -260 231 -270 245 -54 78 -74
259 -37 334 10 21 66 87 125 147 78 80 121 116 161 134 58 27 120 33 166 15z
m-2756 -59 c8 -5 11 -10 5 -10 -5 0 -17 5 -25 10 -8 5 -10 10 -5 10 6 0 17 -5
25 -10z m145 -41 c69 -18 70 -18 15 -12 -30 4 -67 7 -82 7 -15 -1 -25 3 -22 7
3 5 -2 9 -10 9 -8 0 -18 5 -21 10 -4 7 3 8 22 4 15 -4 60 -16 98 -25z m102
-25 c-3 -3 -12 -4 -19 -1 -8 3 -5 6 6 6 11 1 17 -2 13 -5z m46 -11 c-7 -2 -19
-2 -25 0 -7 3 -2 5 12 5 14 0 19 -2 13 -5z m554 -39 c-3 -3 -12 -4 -19 -1 -8
3 -5 6 6 6 11 1 17 -2 13 -5z m-1087 -89 c237 -63 433 -247 518 -488 21 -60
25 -91 25 -182 1 -199 -41 -302 -183 -446 -85 -87 -106 -102 -200 -147 -154
-74 -246 -96 -405 -95 -143 0 -204 12 -341 68 -116 46 -185 96 -270 192 -127
146 -171 269 -162 457 6 122 49 261 105 344 74 109 229 224 366 272 146 52
402 63 547 25z m1168 -112 c-10 -2 -28 -2 -40 0 -13 2 -5 4 17 4 22 1 32 -1
23 -4z m-754 -39 c5 -14 4 -15 -9 -4 -17 14 -19 20 -6 20 5 0 12 -7 15 -16z
m2136 -329 c0 -7 -30 -13 -34 -7 -3 4 4 9 15 9 10 1 19 0 19 -2z m67 -62 c-4
-3 -2 -12 4 -19 10 -12 7 -12 -30 -5 -5 1 20 31 27 31 3 0 2 -3 -1 -7z m543
-476 c0 -8 -14 -2 -38 16 -11 8 -11 12 0 18 13 8 38 -14 38 -34z m-4090 -62
c28 -44 50 -83 50 -87 0 -4 -20 7 -44 26 -25 19 -50 36 -56 38 -6 2 -13 30
-16 63 -6 71 -3 69 66 -40z m4166 14 c3 -6 -5 -3 -20 6 -14 10 -26 19 -26 22
0 7 39 -17 46 -28z m109 -89 c3 -6 -1 -7 -9 -4 -18 7 -21 14 -7 14 6 0 13 -4
16 -10z m-4309 -52 c44 -39 60 -74 42 -96 -7 -8 -33 -23 -58 -34 -28 -12 -85
-58 -155 -126 -60 -59 -150 -141 -199 -181 -188 -157 -227 -170 -290 -101 -61
68 -55 83 82 197 143 121 329 266 361 282 13 7 36 11 52 9 21 -3 26 -1 19 7
-15 18 53 74 92 75 10 0 34 -14 54 -32z m1414 -3 c-7 -9 -15 -13 -19 -10 -3 3
1 10 9 15 21 14 24 12 10 -5z m-85 -5 c-3 -5 -12 -10 -18 -10 -7 0 -6 4 3 10
19 12 23 12 15 0z m-1108 -56 c21 -20 40 -36 43 -36 3 1 4 -5 4 -13 -1 -8 1
-14 5 -13 10 2 61 -25 61 -33 0 -4 -6 -10 -12 -13 -9 -4 -8 -5 2 -5 29 2 40
-1 40 -12 0 -5 -4 -7 -10 -4 -5 3 -10 1 -10 -4 0 -6 5 -11 10 -11 17 0 11 -28
-10 -43 -11 -8 -17 -17 -13 -21 4 -4 -20 5 -52 19 -74 33 -135 81 -135 105 0
34 22 120 30 120 5 0 26 -16 47 -36z m1163 1 c0 0 -17 -18 -38 -38 -24 -24
-39 -32 -39 -23 0 8 5 14 11 13 6 -1 10 4 8 11 -1 8 2 11 8 7 7 -4 14 2 16 12
3 11 12 20 20 20 8 0 14 -1 14 -2z m-1059 -61 c17 -8 29 -18 26 -20 -6 -6 -67
23 -67 31 0 8 10 6 41 -11z m4939 2 c0 -2 -8 -10 -17 -17 -16 -13 -17 -12 -4
4 13 16 21 21 21 13z m-4020 -72 c0 -8 -19 -13 -24 -6 -3 5 1 9 9 9 8 0 15 -2
15 -3z m4217 -16 c-3 -8 -6 -5 -6 6 -1 11 2 17 5 13 3 -3 4 -12 1 -19z m-4634
-5 c-7 -2 -19 -2 -25 0 -7 3 -2 5 12 5 14 0 19 -2 13 -5z m-443 -73 c0 -5 -7
-7 -15 -4 -8 4 -12 10 -9 15 6 11 24 2 24 -11z m25 -10 c-3 -5 2 -10 12 -10
10 0 25 -5 33 -10 11 -8 7 -9 -15 -4 -16 4 -33 9 -38 11 -7 4 0 23 9 23 3 0 2
-4 -1 -10z m672 4 c-3 -3 -12 -4 -19 -1 -8 3 -5 6 6 6 11 1 17 -2 13 -5z m207
-2 c3 -5 -1 -9 -9 -9 -8 0 -12 4 -9 9 3 4 7 8 9 8 2 0 6 -4 9 -8z m-254 -21
c-22 -13 -200 -54 -206 -48 -3 2 12 8 33 12 21 4 40 10 43 14 5 8 90 27 125
29 16 1 17 0 5 -7z m215 -1 c-3 -6 -21 -17 -38 -26 -36 -19 -31 -9 10 17 34
21 36 22 28 9z m-686 -26 c9 -8 -55 -2 -74 6 -13 6 -5 7 25 3 25 -3 47 -7 49
-9z m62 -22 c-7 -2 -18 1 -23 6 -8 8 -4 9 13 5 13 -4 18 -8 10 -11z m182 1
c-7 -2 -19 -2 -25 0 -7 3 -2 5 12 5 14 0 19 -2 13 -5z m-95 -10 c-10 -2 -28
-2 -40 0 -13 2 -5 4 17 4 22 1 32 -1 23 -4z m4848 -50 c-11 -11 -19 6 -11 24
8 17 8 17 12 0 3 -10 2 -21 -1 -24z"/>
<path d="M4655 7630 c-444 -57 -865 -306 -1087 -644 -33 -50 -78 -126 -99
-168 -126 -251 -156 -630 -69 -890 166 -496 603 -864 1158 -975 105 -21 378
-23 491 -5 109 19 298 77 414 127 445 196 774 578 852 988 20 105 19 327 -1
448 -95 562 -567 995 -1204 1103 -115 20 -359 28 -455 16z m537 -104 c313 -80
495 -174 690 -355 182 -170 311 -403 358 -651 19 -99 22 -137 17 -275 -6 -170
-14 -213 -68 -349 -68 -169 -177 -336 -303 -462 -285 -284 -778 -463 -1173
-425 -178 17 -346 60 -493 128 -140 64 -181 88 -267 152 -305 229 -479 513
-524 854 -19 148 -1 342 46 482 65 195 158 348 299 493 154 159 346 288 530
356 71 27 292 82 361 90 22 2 119 3 215 1 161 -3 186 -6 312 -39z"/>
<path d="M4864 7256 c-17 -13 -19 -26 -17 -117 1 -72 -2 -106 -10 -111 -7 -4
-58 -8 -114 -8 l-103 0 0 80 c0 73 2 80 20 80 11 0 40 5 65 12 39 10 44 15 39
33 -10 31 -22 35 -106 35 -99 0 -101 -4 -92 -140 l7 -100 -135 0 c-171 0 -198
-5 -198 -36 0 -13 8 -27 18 -33 15 -9 18 -37 25 -258 4 -136 5 -428 1 -648 -6
-376 -7 -402 -26 -433 -34 -55 -23 -62 99 -63 59 -1 135 -4 168 -8 l60 -6 0
-120 c0 -118 0 -120 26 -132 16 -8 36 -9 55 -4 32 9 31 -2 16 151 -6 52 -8 98
-5 103 2 4 44 7 92 7 l88 0 7 -37 c3 -21 6 -60 6 -88 1 -71 20 -118 50 -126
42 -12 144 -9 170 4 24 12 25 17 30 124 3 61 7 114 10 117 3 2 47 14 97 25 50
11 115 32 144 47 155 78 262 289 229 451 -25 119 -93 224 -171 264 -21 10 -39
21 -39 24 0 3 18 28 40 57 127 167 89 423 -80 538 -53 36 -163 80 -200 80 -22
0 -30 38 -30 146 0 72 -3 85 -19 94 -30 16 -193 13 -217 -4z m171 -132 c4 -36
4 -87 0 -115 -4 -27 -5 -49 -3 -49 34 0 137 -28 183 -51 88 -42 130 -81 166
-156 63 -127 45 -238 -53 -335 -66 -66 -71 -73 -58 -97 6 -12 33 -32 61 -46
118 -60 183 -163 184 -290 0 -58 -5 -81 -31 -135 -17 -36 -51 -86 -76 -112
-77 -78 -138 -101 -329 -123 -46 -6 -47 -7 -52 -46 -3 -22 -3 -83 0 -135 l6
-94 -50 0 c-63 0 -63 1 -72 145 l-6 110 -123 -4 c-93 -2 -126 0 -139 10 -11
10 -59 15 -170 17 l-154 4 7 31 c4 18 8 317 8 665 l0 632 141 2 c77 1 205 2
285 2 l145 1 3 96 3 96 42 10 42 11 -47 1 c-73 2 -58 21 16 21 l64 0 7 -66z"/>
<path d="M4488 6933 c7 -3 16 -2 19 1 4 3 -2 6 -13 5 -11 0 -14 -3 -6 -6z"/>
<path d="M4396 6902 c-3 -5 8 -6 25 -4 16 2 29 6 29 8 0 8 -49 4 -54 -4z"/>
<path d="M4400 6870 c0 -5 9 -10 19 -10 11 0 23 5 26 10 4 6 -5 10 -19 10 -14
0 -26 -4 -26 -10z"/>
<path d="M4638 6763 c-18 -3 -30 -12 -33 -26 -3 -12 -4 -231 -3 -487 l3 -465
30 -5 c23 -4 32 -13 40 -37 6 -18 13 -34 15 -37 3 -2 32 -7 65 -10 33 -2 97
-10 142 -16 85 -11 186 -2 238 22 40 18 24 33 -29 30 -41 -3 -47 -2 -44 15 3
19 17 33 33 33 6 0 3 -5 -5 -11 -13 -9 -12 -10 3 -5 10 3 36 -3 59 -15 22 -11
37 -16 33 -10 -3 6 -1 11 4 11 6 0 11 5 11 11 0 8 -4 8 -14 0 -16 -13 -49 -4
-39 12 4 6 0 8 -9 4 -9 -3 -24 1 -35 8 -10 9 -13 14 -6 15 23 0 96 74 114 115
26 55 24 120 -5 181 -45 97 -92 113 -353 121 l-193 6 0 78 0 77 183 4 c207 3
228 10 274 79 67 101 26 246 -82 290 -30 12 -342 22 -397 12z m403 -112 c52
-52 54 -98 6 -146 -43 -43 -81 -52 -249 -60 l-138 -7 0 119 c0 66 3 123 7 126
3 4 80 7 171 7 l164 0 39 -39z m-37 -511 c58 -7 74 -14 102 -41 76 -73 61
-180 -32 -224 -25 -12 -72 -15 -223 -15 l-191 0 0 145 0 145 138 0 c75 -1 168
-5 206 -10z"/>
<path d="M4888 6363 c6 -2 18 -2 25 0 6 3 1 5 -13 5 -14 0 -19 -2 -12 -5z"/>
<path d="M5170 5835 c-7 -9 -10 -18 -6 -22 3 -3 6 -1 6 6 0 7 7 11 14 8 10 -4
13 -1 9 9 -6 18 -8 18 -23 -1z"/>
<path d="M5120 5800 c-13 -8 -13 -10 2 -10 9 0 20 5 23 10 8 13 -5 13 -25 0z"/>
<path d="M5093 5743 c9 -2 23 -2 30 0 6 3 -1 5 -18 5 -16 0 -22 -2 -12 -5z"/>
<path d="M5912 6338 c-17 -17 -15 -53 3 -68 33 -27 95 -7 95 30 0 39 -70 66
-98 38z"/>
<path d="M3745 6320 c-9 -27 19 -70 45 -70 11 0 29 9 40 20 17 17 18 24 8 45
-9 20 -18 25 -49 25 -29 0 -39 -5 -44 -20z"/>
<path d="M5548 4903 c6 -2 18 -2 25 0 6 3 1 5 -13 5 -14 0 -19 -2 -12 -5z"/>
<path d="M6802 6290 c0 -14 2 -19 5 -12 2 6 2 18 0 25 -3 6 -5 1 -5 -13z"/>
<path d="M6811 6070 c0 -33 1 -34 10 -11 6 16 6 28 -1 35 -7 7 -10 -1 -9 -24z"/>
<path d="M6661 5561 c-1 -24 2 -32 9 -25 7 7 7 19 1 35 -9 23 -10 22 -10 -10z"/>
<path d="M6711 5534 c0 -11 3 -14 6 -6 3 7 2 16 -1 19 -3 4 -6 -2 -5 -13z"/>
<path d="M6703 5425 c-3 -9 -3 -18 -1 -21 3 -3 8 4 11 16 6 23 -1 27 -10 5z"/>
<path d="M6742 5340 c0 -14 2 -19 5 -12 2 6 2 18 0 25 -3 6 -5 1 -5 -13z"/>
<path d="M6490 4876 c0 -2 8 -10 18 -17 15 -13 16 -12 3 4 -13 16 -21 21 -21
13z"/>
<path d="M6480 4830 c-12 -7 -12 -11 -2 -20 6 -5 10 -7 7 -4 -3 4 0 13 6 21
13 15 10 16 -11 3z"/>
<path d="M3830 3837 c-41 -13 -99 -36 -129 -52 -73 -40 -217 -177 -246 -234
-117 -232 -77 -490 105 -671 215 -214 570 -259 850 -108 144 77 240 180 291
312 54 139 49 292 -13 424 -38 80 -178 227 -248 259 -183 85 -453 116 -610 70z
m382 -72 c95 -20 196 -70 280 -139 184 -152 229 -349 128 -564 -60 -127 -240
-263 -406 -306 -131 -34 -323 -11 -463 56 -91 43 -205 158 -252 253 -33 68
-34 73 -34 195 0 130 11 179 47 211 10 9 18 26 18 37 0 25 16 38 24 20 3 -7 5
-4 3 7 -2 21 41 90 50 81 3 -3 16 8 30 25 34 40 98 76 196 110 71 25 97 29
194 29 61 0 145 -7 185 -15z"/>
<path d="M6971 7834 c-19 -13 -52 -29 -73 -35 l-39 -10 5 -82 c3 -45 8 -167
12 -272 3 -107 10 -195 16 -202 29 -36 161 18 262 107 31 27 65 55 78 64 12 9
19 18 16 21 -3 4 -22 -8 -42 -25 -20 -18 -40 -28 -47 -24 -9 5 -11 67 -8 232
l4 225 -50 13 c-69 18 -95 16 -134 -12z m109 -259 l0 -215 -61 -31 c-34 -16
-64 -27 -68 -24 -3 4 -7 103 -9 220 l-3 214 38 11 c21 5 47 17 57 25 45 34 46
28 46 -200z"/>
<path d="M8254 6946 c-9 -38 -1 -61 23 -64 31 -5 59 39 43 67 -16 30 -58 28
-66 -3z"/>
<path d="M7674 6852 c-72 -34 -121 -128 -111 -214 16 -135 125 -210 250 -174
69 20 110 59 132 127 15 44 16 60 6 105 -13 57 -55 123 -95 150 -40 25 -133
28 -182 6z m162 -95 c43 -39 54 -93 31 -150 -34 -81 -142 -102 -199 -38 -52
58 -49 129 8 186 29 30 42 35 79 35 37 0 52 -6 81 -33z"/>
<path d="M1780 6241 c-42 -13 -104 -48 -124 -69 -18 -20 -18 -53 -13 -948 6
-1043 -2 -940 86 -992 56 -33 112 -33 175 -1 94 47 86 -54 86 1010 l0 938 -26
20 c-27 21 -114 52 -143 50 -9 0 -27 -4 -41 -8z m104 -79 l28 -17 1 -902 0
-903 -38 -26 c-32 -22 -47 -25 -84 -21 -88 10 -81 -71 -79 946 l3 896 45 23
c53 26 85 28 124 4z"/>
<path d="M7933 6010 c-87 -50 -123 -115 -123 -223 0 -80 16 -129 59 -178 93
-110 255 -105 370 10 93 93 75 252 -40 355 -82 75 -176 88 -266 36z m103 -67
c-3 -21 -6 -62 -6 -90 0 -53 0 -53 -32 -54 -90 -3 -122 -39 -35 -39 l55 0 4
-82 c2 -46 3 -84 2 -85 0 -2 -25 9 -55 25 -64 32 -88 69 -96 145 -6 60 7 112
39 153 27 34 77 64 107 64 22 0 23 -3 17 -37z m89 14 c97 -55 132 -190 74
-284 -20 -32 -48 -52 -104 -73 l-25 -10 0 84 0 84 53 7 c28 4 58 11 66 15 21
11 -53 33 -88 25 l-28 -6 -6 68 c-4 37 -9 78 -13 91 -8 29 17 29 71 -1z"/>
<path d="M2205 5716 c-86 -40 -84 -33 -90 -281 -3 -121 -2 -366 2 -545 l8
-325 50 -27 c65 -36 116 -36 185 0 100 50 93 7 97 606 l4 524 -23 22 c-57 55
-150 65 -233 26z m152 -56 l32 -19 -4 -496 -5 -496 -22 -19 c-44 -36 -73 -43
-120 -29 l-43 14 -3 508 -2 508 52 24 c64 30 74 30 115 5z"/>
<path d="M2727 5479 c-46 -11 -89 -32 -107 -54 -10 -12 -15 -78 -21 -258 -7
-239 -7 -242 14 -265 60 -65 131 -71 237 -19 57 28 65 36 71 67 4 19 5 146 2
281 l-6 247 -45 6 c-57 8 -97 6 -145 -5z m107 -151 c3 -51 8 -154 11 -228 l6
-136 -46 -22 c-55 -27 -95 -28 -125 -4 -22 18 -22 19 -15 220 5 129 12 207 19
218 10 13 92 40 133 43 7 1 13 -31 17 -91z"/>
<path d="M8519 4560 c-48 -8 -98 -40 -148 -95 l-41 -45 0 -88 c0 -106 18 -167
63 -209 36 -34 112 -63 167 -63 48 0 132 43 163 84 94 123 60 326 -64 392 -40
20 -100 31 -140 24z m-7 -140 l-4 -80 -65 0 -65 0 6 26 c9 36 54 93 91 116 16
10 32 18 35 18 3 0 4 -36 2 -80z m145 27 c18 -17 39 -49 48 -69 l15 -38 -75 0
-75 0 0 53 c0 28 -3 63 -7 76 -6 23 -4 24 28 17 19 -3 48 -21 66 -39z m-147
-233 c0 -84 0 -85 -22 -78 -60 18 -98 65 -98 119 0 19 7 26 28 31 15 3 32 7
37 9 6 2 20 4 33 4 21 1 22 -2 22 -85z m194 33 c-1 -29 -10 -47 -35 -73 -29
-30 -102 -65 -113 -53 -2 2 -1 41 2 87 l5 83 71 -3 71 -3 -1 -38z"/>
<path d="M7351 4344 c0 -11 3 -14 6 -6 3 7 2 16 -1 19 -3 4 -6 -2 -5 -13z"/>
<path d="M7368 4293 c6 -2 18 -2 25 0 6 3 1 5 -13 5 -14 0 -19 -2 -12 -5z"/>
<path d="M7378 4263 c7 -3 16 -2 19 1 4 3 -2 6 -13 5 -11 0 -14 -3 -6 -6z"/>
<path d="M7655 4230 c-3 -6 1 -7 9 -4 18 7 21 14 7 14 -6 0 -13 -4 -16 -10z"/>
<path d="M2790 4001 c-59 -31 -75 -63 -75 -144 0 -58 4 -78 22 -103 65 -91
202 -81 271 20 29 43 30 127 2 174 -42 69 -144 94 -220 53z m135 -72 c30 -27
35 -37 35 -74 0 -36 -5 -47 -28 -64 -63 -45 -118 -36 -146 24 -20 41 -7 91 31
122 38 31 66 29 108 -8z"/>
<path d="M5522 3579 c-18 -14 -22 -24 -17 -41 7 -22 6 -22 -7 -4 -13 17 -15
17 -31 1 -23 -22 -12 -37 24 -31 23 3 29 1 29 -15 0 -10 5 -19 10 -19 6 0 10
7 10 15 0 10 10 15 30 15 17 0 30 -3 30 -7 0 -5 10 -9 23 -9 78 -4 113 -16
101 -35 -3 -5 2 -6 11 -3 12 5 9 11 -17 30 -17 13 -36 24 -41 24 -5 0 -30 17
-56 38 -79 64 -74 62 -99 41z"/>
<path d="M6649 3598 c-6 -12 -3 -66 3 -62 5 3 5 10 2 16 -5 7 -2 9 8 6 8 -4
15 -1 15 7 0 8 -7 11 -15 7 -11 -4 -14 -1 -9 11 5 13 1 25 -4 15z"/>
<path d="M6704 3584 c-18 -14 -18 -15 4 -4 12 6 22 13 22 15 0 8 -5 6 -26 -11z"/>
<path d="M6598 3513 c7 -3 16 -2 19 1 4 3 -2 6 -13 5 -11 0 -14 -3 -6 -6z"/>
<path d="M6556 3483 c-6 -14 -5 -15 5 -6 7 7 10 15 7 18 -3 3 -9 -2 -12 -12z"/>
<path d="M6637 3481 c-18 -11 -25 -21 -18 -25 6 -4 11 -3 11 3 0 6 11 13 25
17 14 3 25 10 25 15 0 14 -12 11 -43 -10z"/>
<path d="M6585 3440 c-3 -5 -1 -10 4 -10 6 0 11 5 11 10 0 6 -2 10 -4 10 -3 0
-8 -4 -11 -10z"/>
<path d="M5880 3420 c0 -5 5 -10 10 -10 6 0 10 5 10 10 0 6 -4 10 -10 10 -5 0
-10 -4 -10 -10z"/>
<path d="M6460 3349 c-22 -18 -22 -19 -3 -10 12 6 25 16 28 21 9 15 3 12 -25
-11z"/>
<path d="M2225 3276 c-66 -30 -130 -103 -152 -173 -24 -77 -8 -166 44 -242 48
-69 138 -121 211 -121 93 0 198 75 243 174 21 47 25 154 7 207 -23 68 -65 116
-130 148 -78 39 -150 42 -223 7z m185 -60 c68 -36 100 -87 106 -171 5 -60 2
-76 -18 -115 -30 -59 -112 -110 -177 -110 -167 0 -253 237 -128 358 66 64 143
78 217 38z"/>
<path d="M2297 3072 c-25 -28 -22 -69 8 -88 29 -19 60 -11 81 21 36 55 -45
116 -89 67z"/>
<path d="M6360 3279 c-22 -18 -22 -19 -3 -10 12 6 25 16 28 21 9 15 3 12 -25
-11z"/>
<path d="M7307 3063 c-7 -12 13 -37 48 -57 21 -13 24 -13 11 -2 -11 9 -27 27
-37 42 -9 14 -19 22 -22 17z"/>
<path d="M4932 2925 c0 -16 2 -22 5 -12 2 9 2 23 0 30 -3 6 -5 -1 -5 -18z"/>
<path d="M6208 2675 c-87 -59 -112 -163 -59 -248 55 -86 175 -116 241 -61 78
66 91 169 32 261 -37 58 -65 73 -130 73 -34 0 -58 -7 -84 -25z m172 -43 c14
-11 31 -30 37 -43 15 -28 17 -107 4 -141 -13 -33 -86 -69 -138 -67 -53 3 -104
42 -106 82 -1 15 -5 27 -9 27 -5 0 -8 22 -8 48 0 40 5 53 29 76 50 48 139 56
191 18z"/>
<path d="M6367 2431 c-3 -13 -1 -18 9 -14 7 2 10 11 7 19 -7 19 -10 18 -16 -5z"/>
<path d="M5250 2580 c-8 -5 -11 -12 -7 -16 4 -4 15 0 24 9 18 18 8 23 -17 7z"/>
<path d="M5100 2470 c0 -9 39 -25 45 -18 2 2 -7 8 -21 15 -13 6 -24 7 -24 3z"/>
<path d="M3182 2385 c-11 -13 -22 -21 -26 -17 -4 3 -4 -2 0 -12 5 -13 9 -14
14 -6 4 7 12 10 18 6 6 -3 9 2 7 11 -1 10 2 24 8 31 5 6 7 12 4 12 -3 0 -14
-11 -25 -25z"/>
<path d="M3070 2291 c0 -6 4 -13 10 -16 6 -3 7 1 4 9 -7 18 -14 21 -14 7z"/>
<path d="M4208 2283 c7 -3 16 -2 19 1 4 3 -2 6 -13 5 -11 0 -14 -3 -6 -6z"/>
<path d="M6472 1900 c-34 -21 -72 -74 -72 -102 0 -28 51 -79 108 -107 71 -34
85 -55 53 -82 -30 -25 -55 -24 -98 2 l-35 22 -20 -21 c-12 -11 -17 -25 -13
-32 13 -21 72 -40 124 -40 61 0 105 32 122 89 16 55 1 75 -89 119 -78 38 -95
59 -72 87 17 20 69 19 91 -1 24 -22 49 -11 49 20 0 52 -93 80 -148 46z"/>
<path d="M6735 1910 c-2 -3 -3 -87 -2 -186 l2 -179 26 -3 c24 -3 27 1 33 44 3
26 6 109 6 184 l0 138 -30 4 c-17 3 -33 2 -35 -2z"/>
<path d="M6974 1906 c-37 -17 -70 -57 -79 -96 -10 -45 26 -87 102 -122 35 -16
67 -36 70 -44 17 -45 -80 -66 -117 -26 -26 28 -42 28 -66 1 -19 -21 -19 -21
11 -45 93 -75 245 -30 245 73 0 45 -25 69 -100 98 -82 31 -101 54 -70 85 22
22 69 26 101 9 16 -8 26 -7 45 6 29 19 26 27 -18 48 -51 23 -90 28 -124 13z"/>
<path d="M3201 1888 c-62 -30 -101 -95 -101 -165 0 -30 6 -66 14 -81 35 -66
123 -118 180 -107 30 7 116 51 116 60 0 3 -11 12 -25 21 -23 15 -27 15 -60 -6
-44 -27 -71 -22 -119 24 -31 29 -36 39 -36 81 0 26 7 59 16 75 32 54 108 77
150 45 27 -20 52 -18 59 5 8 27 -1 39 -41 56 -48 20 -102 17 -153 -8z"/>
<path d="M3564 1890 c-87 -44 -137 -165 -99 -241 39 -77 92 -112 171 -111 63
0 102 19 143 69 47 57 57 100 37 161 -22 66 -50 100 -100 123 -53 24 -101 24
-152 -1z m150 -79 c64 -64 35 -183 -50 -211 -32 -11 -42 -10 -68 4 -44 24 -76
75 -76 122 0 45 30 101 63 114 37 16 99 2 131 -29z"/>
<path d="M4076 1903 c-3 -4 -6 -87 -6 -185 l0 -178 25 0 c24 0 24 0 27 117 l3
118 98 -118 c76 -90 104 -117 123 -117 l24 0 0 185 0 185 -30 0 -30 0 0 -127
-1 -128 -22 26 c-12 14 -55 68 -96 120 -69 88 -101 116 -115 102z"/>
<path d="M4711 1835 c-37 -67 -111 -257 -111 -285 0 -5 16 -10 35 -10 31 0 35
3 41 36 8 41 7 41 101 47 l72 4 21 -49 c20 -46 23 -49 48 -43 44 11 46 -6 -27
165 -104 243 -116 252 -180 135z m85 -88 c20 -47 21 -53 6 -59 -25 -10 -82 -9
-82 1 0 19 43 121 49 116 3 -3 15 -29 27 -58z"/>
<path d="M5275 1898 c-3 -7 -6 -64 -7 -127 l-3 -115 -44 60 c-83 110 -155 184
-178 184 l-23 0 0 -180 0 -180 30 0 30 0 1 123 0 122 32 -39 c152 -187 177
-214 197 -209 19 5 20 14 20 189 l0 184 -25 0 c-14 0 -28 -6 -30 -12z"/>
<path d="M5507 1829 c-37 -78 -107 -260 -107 -279 0 -6 13 -10 30 -10 25 0 31
5 38 33 8 31 10 32 88 43 43 7 82 10 86 8 3 -2 12 -21 19 -42 6 -20 17 -40 23
-44 9 -6 44 -2 54 7 6 5 -124 333 -140 353 -6 6 -20 12 -32 11 -16 0 -29 -18
-59 -80z m108 -138 c-8 -7 -105 -18 -105 -12 0 3 12 34 27 68 l27 62 28 -56
c15 -31 25 -59 23 -62z"/>
<path d="M5820 1723 l0 -188 112 1 113 2 3 31 3 31 -85 0 -86 0 0 109 c0 59
-3 129 -6 155 -6 40 -10 46 -30 46 l-24 0 0 -187z"/>
<path d="M6054 1885 c4 -15 28 -61 54 -103 46 -75 47 -79 47 -159 l0 -83 33 0
32 0 0 70 c0 69 2 74 61 171 80 133 79 129 33 128 -38 0 -40 -2 -74 -71 -20
-39 -40 -70 -45 -70 -6 0 -29 31 -51 69 -33 54 -47 69 -69 71 -25 3 -27 1 -21
-23z"/>
<path d="M3900 1720 l-1 -180 36 0 35 0 0 180 0 180 -34 0 -34 0 -2 -180z"/>
</g>
</svg>
